<?xml version="1.0" encoding="UTF-8" standalone="no"?>
<!DOCTYPE svg PUBLIC "-//W3C//DTD SVG 1.1//EN" "http://www.w3.org/Graphics/SVG/1.1/DTD/svg11.dtd">
<svg width="100" height="100" viewBox="0 0 440 441" version="1.1" xmlns="http://www.w3.org/2000/svg" xmlns:xlink="http://www.w3.org/1999/xlink" xml:space="preserve" xmlns:serif="http://www.serif.com/" style="fill-rule:evenodd;clip-rule:evenodd;stroke-linejoin:round;stroke-miterlimit:2;">
    <g transform="matrix(1,0,0,1,0.5,1)">
        <g transform="matrix(1.33119,0,0,1.23418,-89.825,-64.1405)">
            <ellipse cx="232.368" cy="229.821" rx="159.632" ry="172.179" style="fill:rgb(33,144,199);"/>
        </g>
        <g transform="matrix(1.33119,0,0,1.23418,-89.825,-64.1405)">
            <path d="M232.368,75.725C311.218,75.725 375.235,144.773 375.235,229.821C375.235,314.869 311.218,383.917 232.368,383.917C153.518,383.917 89.501,314.869 89.501,229.821C89.501,144.773 153.518,75.725 232.368,75.725ZM232.368,78.384C154.878,78.384 91.967,146.241 91.967,229.821C91.967,313.401 154.878,381.257 232.368,381.257C309.857,381.257 372.769,313.401 372.769,229.821C372.769,146.241 309.857,78.384 232.368,78.384Z" style="fill:white;"/>
        </g>
        <g transform="matrix(1.33119,0,0,1.23418,-89.825,-64.1405)">
            <ellipse cx="232.368" cy="229.821" rx="133.991" ry="144.522" style="fill:white;"/>
        </g>
        <g transform="matrix(1,0,0,1,0.862777,0.510687)">
            <g>
                <path d="M264.962,297L104.134,297C98.387,297 93.153,293.689 90.691,288.496C88.229,283.303 88.978,277.156 92.616,272.706L250.479,79.602C254.177,75.078 260.32,73.369 265.823,75.332C271.326,77.295 275,82.506 275,88.349L275,286.962C275,289.624 273.942,292.177 272.06,294.06C270.177,295.942 267.624,297 264.962,297ZM241.364,265C242.464,265 243.358,264.111 243.364,263.011L243.971,149.443C243.975,148.604 243.456,147.852 242.671,147.559C241.885,147.265 241,147.493 240.454,148.129L142.918,261.697C142.409,262.29 142.292,263.125 142.618,263.835C142.944,264.545 143.654,265 144.435,265L241.364,265Z" style="fill:rgb(33,144,199);"/>
                <path d="M344.112,301L344.112,314.418L293.262,314.651L293.448,365.81L279,365.81L279,311.038C279,308.376 280.058,305.823 281.94,303.94C283.823,302.058 286.376,301 289.038,301L344.112,301Z" style="fill:rgb(33,144,199);"/>
                <path d="M275,365.81L243.353,365.81L243.353,314.879L106.786,315.504C93.654,315.564 81.669,308.033 76.026,296.176C70.382,284.318 72.096,270.268 80.424,260.114L237.126,69.056C245.47,58.882 259.3,55.038 271.697,59.446C284.093,63.855 292.392,75.567 292.44,88.724L293.081,265L344.112,265L344.112,297L289.038,297C286.376,297 283.823,295.942 281.94,294.06C280.058,292.177 279,289.624 279,286.962L279,88.349C279,80.815 274.263,74.096 267.167,71.564C260.071,69.033 252.15,71.237 247.382,77.07L89.519,270.174C84.903,275.82 83.952,283.62 87.077,290.21C90.201,296.799 96.841,301 104.134,301L264.962,301C270.506,301 275,305.494 275,311.038L275,365.81Z" style="fill:rgb(33,144,199);"/>
            </g>
        </g>
    </g>
</svg>
